<svg width="492" height="146" viewBox="0 0 492 146" fill="none" xmlns="http://www.w3.org/2000/svg">
<g clip-path="url(#clip0_1269_899)">
<path d="M147.429 1.71436H128.571C127.889 1.71436 127.235 1.98527 126.753 2.46751C126.271 2.94975 126 3.6038 126 4.28578V23.1429C126 23.8249 126.271 24.479 126.753 24.9612C127.235 25.4434 127.889 25.7144 128.571 25.7144H135.924V17.5549H132.549V13.7144H135.924V10.7872C135.924 7.45775 137.906 5.61864 140.942 5.61864C142.396 5.61864 143.916 5.87793 143.916 5.87793V9.14578H142.241C140.591 9.14578 140.076 10.1701 140.076 11.2206V13.7144H143.761L143.171 17.5549H140.076V25.7144H147.429C148.111 25.7144 148.765 25.4434 149.247 24.9612C149.729 24.479 150 23.8249 150 23.1429V4.28578C150 3.6038 149.729 2.94975 149.247 2.46751C148.765 1.98527 148.111 1.71436 147.429 1.71436Z" fill="#111827"/>
</g>
<g clip-path="url(#clip1_1269_899)">
<path d="M210.005 7.55374C206.598 7.55374 203.85 10.302 203.85 13.7091C203.85 17.1162 206.598 19.8645 210.005 19.8645C213.412 19.8645 216.161 17.1162 216.161 13.7091C216.161 10.302 213.412 7.55374 210.005 7.55374ZM210.005 17.7109C207.804 17.7109 206.004 15.9162 206.004 13.7091C206.004 11.502 207.798 9.70731 210.005 9.70731C212.212 9.70731 214.007 11.502 214.007 13.7091C214.007 15.9162 212.207 17.7109 210.005 17.7109ZM217.848 7.30195C217.848 8.10017 217.205 8.73767 216.412 8.73767C215.614 8.73767 214.977 8.09481 214.977 7.30195C214.977 6.5091 215.62 5.86624 216.412 5.86624C217.205 5.86624 217.848 6.5091 217.848 7.30195ZM221.925 8.7591C221.834 6.83588 221.395 5.13231 219.986 3.72874C218.582 2.32517 216.879 1.88588 214.955 1.78945C212.973 1.67695 207.032 1.67695 205.05 1.78945C203.132 1.88052 201.429 2.31981 200.02 3.72338C198.611 5.12695 198.177 6.83052 198.08 8.75374C197.968 10.7359 197.968 16.677 198.08 18.6591C198.171 20.5823 198.611 22.2859 200.02 23.6895C201.429 25.093 203.127 25.5323 205.05 25.6287C207.032 25.7412 212.973 25.7412 214.955 25.6287C216.879 25.5377 218.582 25.0984 219.986 23.6895C221.389 22.2859 221.829 20.5823 221.925 18.6591C222.037 16.677 222.037 10.7412 221.925 8.7591ZM219.364 20.7859C218.946 21.8359 218.137 22.6448 217.082 23.068C215.502 23.6948 211.752 23.5502 210.005 23.5502C208.259 23.5502 204.504 23.6895 202.929 23.068C201.879 22.6502 201.07 21.8412 200.646 20.7859C200.02 19.2055 200.164 15.4555 200.164 13.7091C200.164 11.9627 200.025 8.20731 200.646 6.63231C201.064 5.58231 201.873 4.77338 202.929 4.35017C204.509 3.72338 208.259 3.86802 210.005 3.86802C211.752 3.86802 215.507 3.72874 217.082 4.35017C218.132 4.76802 218.941 5.57695 219.364 6.63231C219.991 8.21267 219.846 11.9627 219.846 13.7091C219.846 15.4555 219.991 19.2109 219.364 20.7859Z" fill="#111827"/>
</g>
<path d="M291.533 8.82611C291.548 9.03929 291.548 9.25253 291.548 9.46571C291.548 15.9682 286.599 23.4606 277.553 23.4606C274.766 23.4606 272.178 22.6535 270 21.2525C270.396 21.2982 270.777 21.3134 271.188 21.3134C273.487 21.3134 275.604 20.5368 277.294 19.2119C275.132 19.1662 273.32 17.75 272.695 15.8007C273 15.8464 273.305 15.8769 273.624 15.8769C274.066 15.8769 274.508 15.8159 274.919 15.7094C272.665 15.2525 270.975 13.2728 270.975 10.8819V10.8211C271.629 11.1865 272.391 11.415 273.198 11.4454C271.873 10.5621 271.005 9.05453 271.005 7.34893C271.005 6.43525 271.249 5.59768 271.675 4.86671C274.096 7.85148 277.736 9.80068 281.817 10.0139C281.741 9.64843 281.695 9.26776 281.695 8.88704C281.695 6.17636 283.888 3.96826 286.614 3.96826C288.03 3.96826 289.31 4.56217 290.208 5.52156C291.32 5.30837 292.386 4.89718 293.33 4.33375C292.964 5.4759 292.188 6.43529 291.167 7.04439C292.157 6.93784 293.117 6.66367 294 6.283C293.33 7.25757 292.492 8.12556 291.533 8.82611Z" fill="#111827"/>
<path d="M364.902 8.21781C364.641 7.2324 363.87 6.45631 362.89 6.19294C361.116 5.71436 354 5.71436 354 5.71436C354 5.71436 346.884 5.71436 345.11 6.19294C344.13 6.45636 343.359 7.2324 343.098 8.21781C342.622 10.0039 342.622 13.7305 342.622 13.7305C342.622 13.7305 342.622 17.4571 343.098 19.2432C343.359 20.2286 344.13 20.9724 345.11 21.2358C346.884 21.7144 354 21.7144 354 21.7144C354 21.7144 361.116 21.7144 362.89 21.2358C363.87 20.9724 364.641 20.2286 364.902 19.2432C365.378 17.4571 365.378 13.7305 365.378 13.7305C365.378 13.7305 365.378 10.0039 364.902 8.21781ZM351.673 17.114V10.3471L357.62 13.7306L351.673 17.114Z" fill="#111827"/>
<path d="M6.93 81.6445C5.658 81.6445 4.566 81.3745 3.654 80.8345C2.742 80.2825 2.04 79.5205 1.548 78.5485C1.056 77.5645 0.81 76.4305 0.81 75.1465C0.81 73.8625 1.056 72.7285 1.548 71.7445C2.04 70.7605 2.742 69.9925 3.654 69.4405C4.566 68.8885 5.658 68.6125 6.93 68.6125C8.442 68.6125 9.678 68.9905 10.638 69.7465C11.61 70.4905 12.216 71.5405 12.456 72.8965H9.918C9.762 72.2125 9.426 71.6785 8.91 71.2945C8.406 70.8985 7.734 70.7005 6.894 70.7005C5.73 70.7005 4.818 71.0965 4.158 71.8885C3.498 72.6805 3.168 73.7665 3.168 75.1465C3.168 76.5265 3.498 77.6125 4.158 78.4045C4.818 79.1845 5.73 79.5745 6.894 79.5745C7.734 79.5745 8.406 79.3945 8.91 79.0345C9.426 78.6625 9.762 78.1525 9.918 77.5045H12.456C12.216 78.8005 11.61 79.8145 10.638 80.5465C9.678 81.2785 8.442 81.6445 6.93 81.6445ZM18.7255 81.6445C17.8615 81.6445 17.0815 81.4465 16.3855 81.0505C15.7015 80.6545 15.1555 80.1085 14.7475 79.4125C14.3515 78.7045 14.1535 77.8885 14.1535 76.9645C14.1535 76.0405 14.3575 75.2305 14.7655 74.5345C15.1735 73.8265 15.7195 73.2745 16.4035 72.8785C17.0995 72.4825 17.8795 72.2845 18.7435 72.2845C19.5955 72.2845 20.3635 72.4825 21.0475 72.8785C21.7435 73.2745 22.2895 73.8265 22.6855 74.5345C23.0935 75.2305 23.2975 76.0405 23.2975 76.9645C23.2975 77.8885 23.0935 78.7045 22.6855 79.4125C22.2895 80.1085 21.7435 80.6545 21.0475 81.0505C20.3515 81.4465 19.5775 81.6445 18.7255 81.6445ZM18.7255 79.6465C19.3255 79.6465 19.8475 79.4245 20.2915 78.9805C20.7355 78.5245 20.9575 77.8525 20.9575 76.9645C20.9575 76.0765 20.7355 75.4105 20.2915 74.9665C19.8475 74.5105 19.3315 74.2825 18.7435 74.2825C18.1315 74.2825 17.6035 74.5105 17.1595 74.9665C16.7275 75.4105 16.5115 76.0765 16.5115 76.9645C16.5115 77.8525 16.7275 78.5245 17.1595 78.9805C17.6035 79.4245 18.1255 79.6465 18.7255 79.6465ZM25.3575 81.4285V72.5005H27.3915L27.5715 74.0125C27.8475 73.4845 28.2435 73.0645 28.7595 72.7525C29.2875 72.4405 29.9055 72.2845 30.6135 72.2845C31.7175 72.2845 32.5755 72.6325 33.1875 73.3285C33.7995 74.0245 34.1055 75.0445 34.1055 76.3885V81.4285H31.8015V76.6045C31.8015 75.8365 31.6455 75.2485 31.3335 74.8405C31.0215 74.4325 30.5355 74.2285 29.8755 74.2285C29.2275 74.2285 28.6935 74.4565 28.2735 74.9125C27.8655 75.3685 27.6615 76.0045 27.6615 76.8205V81.4285H25.3575ZM40.4127 81.6445C39.5727 81.6445 38.8227 81.4405 38.1627 81.0325C37.5027 80.6245 36.9807 80.0665 36.5967 79.3585C36.2127 78.6505 36.0207 77.8465 36.0207 76.9465C36.0207 76.0465 36.2127 75.2485 36.5967 74.5525C36.9807 73.8445 37.5027 73.2925 38.1627 72.8965C38.8227 72.4885 39.5727 72.2845 40.4127 72.2845C41.0847 72.2845 41.6727 72.4105 42.1767 72.6625C42.6807 72.9145 43.0887 73.2685 43.4007 73.7245V68.4685H45.7047V81.4285H43.6527L43.4007 80.1505C43.1127 80.5465 42.7287 80.8945 42.2487 81.1945C41.7807 81.4945 41.1687 81.6445 40.4127 81.6445ZM40.8987 79.6285C41.6427 79.6285 42.2487 79.3825 42.7167 78.8905C43.1967 78.3865 43.4367 77.7445 43.4367 76.9645C43.4367 76.1845 43.1967 75.5485 42.7167 75.0565C42.2487 74.5525 41.6427 74.3005 40.8987 74.3005C40.1667 74.3005 39.5607 74.5465 39.0807 75.0385C38.6007 75.5305 38.3607 76.1665 38.3607 76.9465C38.3607 77.7265 38.6007 78.3685 39.0807 78.8725C39.5607 79.3765 40.1667 79.6285 40.8987 79.6285ZM49.2929 71.1145C48.8729 71.1145 48.5249 70.9885 48.2489 70.7365C47.9849 70.4845 47.8529 70.1665 47.8529 69.7825C47.8529 69.3985 47.9849 69.0865 48.2489 68.8465C48.5249 68.5945 48.8729 68.4685 49.2929 68.4685C49.7129 68.4685 50.0549 68.5945 50.3189 68.8465C50.5949 69.0865 50.7329 69.3985 50.7329 69.7825C50.7329 70.1665 50.5949 70.4845 50.3189 70.7365C50.0549 70.9885 49.7129 71.1145 49.2929 71.1145ZM48.1409 81.4285V72.5005H50.4449V81.4285H48.1409ZM56.8277 81.4285C55.8917 81.4285 55.1417 81.2005 54.5777 80.7445C54.0137 80.2885 53.7317 79.4785 53.7317 78.3145V74.4265H52.2017V72.5005H53.7317L54.0017 70.1065H56.0357V72.5005H58.4477V74.4265H56.0357V78.3325C56.0357 78.7645 56.1257 79.0645 56.3057 79.2325C56.4977 79.3885 56.8217 79.4665 57.2777 79.4665H58.3937V81.4285H56.8277ZM61.6679 71.1145C61.2479 71.1145 60.8999 70.9885 60.6239 70.7365C60.3599 70.4845 60.2279 70.1665 60.2279 69.7825C60.2279 69.3985 60.3599 69.0865 60.6239 68.8465C60.8999 68.5945 61.2479 68.4685 61.6679 68.4685C62.0879 68.4685 62.4299 68.5945 62.6939 68.8465C62.9699 69.0865 63.1079 69.3985 63.1079 69.7825C63.1079 70.1665 62.9699 70.4845 62.6939 70.7365C62.4299 70.9885 62.0879 71.1145 61.6679 71.1145ZM60.5159 81.4285V72.5005H62.8199V81.4285H60.5159ZM69.5087 81.6445C68.6447 81.6445 67.8647 81.4465 67.1687 81.0505C66.4847 80.6545 65.9387 80.1085 65.5307 79.4125C65.1347 78.7045 64.9367 77.8885 64.9367 76.9645C64.9367 76.0405 65.1407 75.2305 65.5487 74.5345C65.9567 73.8265 66.5027 73.2745 67.1867 72.8785C67.8827 72.4825 68.6627 72.2845 69.5267 72.2845C70.3787 72.2845 71.1467 72.4825 71.8307 72.8785C72.5267 73.2745 73.0727 73.8265 73.4687 74.5345C73.8767 75.2305 74.0807 76.0405 74.0807 76.9645C74.0807 77.8885 73.8767 78.7045 73.4687 79.4125C73.0727 80.1085 72.5267 80.6545 71.8307 81.0505C71.1347 81.4465 70.3607 81.6445 69.5087 81.6445ZM69.5087 79.6465C70.1087 79.6465 70.6307 79.4245 71.0747 78.9805C71.5187 78.5245 71.7407 77.8525 71.7407 76.9645C71.7407 76.0765 71.5187 75.4105 71.0747 74.9665C70.6307 74.5105 70.1147 74.2825 69.5267 74.2825C68.9147 74.2825 68.3867 74.5105 67.9427 74.9665C67.5107 75.4105 67.2947 76.0765 67.2947 76.9645C67.2947 77.8525 67.5107 78.5245 67.9427 78.9805C68.3867 79.4245 68.9087 79.6465 69.5087 79.6465ZM76.1407 81.4285V72.5005H78.1747L78.3547 74.0125C78.6307 73.4845 79.0267 73.0645 79.5427 72.7525C80.0707 72.4405 80.6887 72.2845 81.3967 72.2845C82.5007 72.2845 83.3587 72.6325 83.9707 73.3285C84.5827 74.0245 84.8887 75.0445 84.8887 76.3885V81.4285H82.5847V76.6045C82.5847 75.8365 82.4287 75.2485 82.1167 74.8405C81.8047 74.4325 81.3187 74.2285 80.6587 74.2285C80.0107 74.2285 79.4767 74.4565 79.0567 74.9125C78.6487 75.3685 78.4447 76.0045 78.4447 76.8205V81.4285H76.1407ZM90.7819 81.6445C89.9899 81.6445 89.2939 81.5185 88.6939 81.2665C88.0939 81.0025 87.6139 80.6425 87.2539 80.1865C86.8939 79.7305 86.6779 79.2025 86.6059 78.6025H88.9279C88.9999 78.9505 89.1919 79.2505 89.5039 79.5025C89.8279 79.7425 90.2419 79.8625 90.7459 79.8625C91.2499 79.8625 91.6159 79.7605 91.8439 79.5565C92.0839 79.3525 92.2039 79.1185 92.2039 78.8545C92.2039 78.4705 92.0359 78.2125 91.6999 78.0805C91.3639 77.9365 90.8959 77.7985 90.2959 77.6665C89.9119 77.5825 89.5219 77.4805 89.1259 77.3605C88.7299 77.2405 88.3639 77.0905 88.0279 76.9105C87.7039 76.7185 87.4399 76.4785 87.2359 76.1905C87.0319 75.8905 86.9299 75.5245 86.9299 75.0925C86.9299 74.3005 87.2419 73.6345 87.8659 73.0945C88.5019 72.5545 89.3899 72.2845 90.5299 72.2845C91.5859 72.2845 92.4259 72.5305 93.0499 73.0225C93.6859 73.5145 94.0639 74.1925 94.1839 75.0565H92.0059C91.8739 74.3965 91.3759 74.0665 90.5119 74.0665C90.0799 74.0665 89.7439 74.1505 89.5039 74.3185C89.2759 74.4865 89.1619 74.6965 89.1619 74.9485C89.1619 75.2125 89.3359 75.4225 89.6839 75.5785C90.0319 75.7345 90.4939 75.8785 91.0699 76.0105C91.6939 76.1545 92.2639 76.3165 92.7799 76.4965C93.3079 76.6645 93.7279 76.9225 94.0399 77.2705C94.3519 77.6065 94.5079 78.0925 94.5079 78.7285C94.5199 79.2805 94.3759 79.7785 94.0759 80.2225C93.7759 80.6665 93.3439 81.0145 92.7799 81.2665C92.2159 81.5185 91.5499 81.6445 90.7819 81.6445ZM105.122 81.6445C104.258 81.6445 103.478 81.4465 102.782 81.0505C102.098 80.6545 101.552 80.1085 101.144 79.4125C100.748 78.7045 100.55 77.8885 100.55 76.9645C100.55 76.0405 100.754 75.2305 101.162 74.5345C101.57 73.8265 102.116 73.2745 102.8 72.8785C103.496 72.4825 104.276 72.2845 105.14 72.2845C105.992 72.2845 106.76 72.4825 107.444 72.8785C108.14 73.2745 108.686 73.8265 109.082 74.5345C109.49 75.2305 109.694 76.0405 109.694 76.9645C109.694 77.8885 109.49 78.7045 109.082 79.4125C108.686 80.1085 108.14 80.6545 107.444 81.0505C106.748 81.4465 105.974 81.6445 105.122 81.6445ZM105.122 79.6465C105.722 79.6465 106.244 79.4245 106.688 78.9805C107.132 78.5245 107.354 77.8525 107.354 76.9645C107.354 76.0765 107.132 75.4105 106.688 74.9665C106.244 74.5105 105.728 74.2825 105.14 74.2825C104.528 74.2825 104 74.5105 103.556 74.9665C103.124 75.4105 102.908 76.0765 102.908 76.9645C102.908 77.8525 103.124 78.5245 103.556 78.9805C104 79.4245 104.522 79.6465 105.122 79.6465ZM112.168 81.4285V74.4265H110.944V72.5005H112.168V71.4565C112.168 70.3765 112.438 69.6085 112.978 69.1525C113.53 68.6965 114.274 68.4685 115.21 68.4685H116.2V70.4305H115.57C115.174 70.4305 114.892 70.5085 114.724 70.6645C114.556 70.8205 114.472 71.0845 114.472 71.4565V72.5005H116.398V74.4265H114.472V81.4285H112.168ZM127.426 81.6445C126.502 81.6445 125.668 81.4645 124.924 81.1045C124.18 80.7325 123.586 80.1745 123.142 79.4305C122.71 78.6865 122.494 77.7445 122.494 76.6045V68.8285H124.798V76.6225C124.798 77.6065 125.032 78.3385 125.5 78.8185C125.98 79.2985 126.64 79.5385 127.48 79.5385C128.308 79.5385 128.962 79.2985 129.442 78.8185C129.922 78.3385 130.162 77.6065 130.162 76.6225V68.8285H132.466V76.6045C132.466 77.7445 132.238 78.6865 131.782 79.4305C131.326 80.1745 130.714 80.7325 129.946 81.1045C129.19 81.4645 128.35 81.6445 127.426 81.6445ZM138.454 81.6445C137.662 81.6445 136.966 81.5185 136.366 81.2665C135.766 81.0025 135.286 80.6425 134.926 80.1865C134.566 79.7305 134.35 79.2025 134.278 78.6025H136.6C136.672 78.9505 136.864 79.2505 137.176 79.5025C137.5 79.7425 137.914 79.8625 138.418 79.8625C138.922 79.8625 139.288 79.7605 139.516 79.5565C139.756 79.3525 139.876 79.1185 139.876 78.8545C139.876 78.4705 139.708 78.2125 139.372 78.0805C139.036 77.9365 138.568 77.7985 137.968 77.6665C137.584 77.5825 137.194 77.4805 136.798 77.3605C136.402 77.2405 136.036 77.0905 135.7 76.9105C135.376 76.7185 135.112 76.4785 134.908 76.1905C134.704 75.8905 134.602 75.5245 134.602 75.0925C134.602 74.3005 134.914 73.6345 135.538 73.0945C136.174 72.5545 137.062 72.2845 138.202 72.2845C139.258 72.2845 140.098 72.5305 140.722 73.0225C141.358 73.5145 141.736 74.1925 141.856 75.0565H139.678C139.546 74.3965 139.048 74.0665 138.184 74.0665C137.752 74.0665 137.416 74.1505 137.176 74.3185C136.948 74.4865 136.834 74.6965 136.834 74.9485C136.834 75.2125 137.008 75.4225 137.356 75.5785C137.704 75.7345 138.166 75.8785 138.742 76.0105C139.366 76.1545 139.936 76.3165 140.452 76.4965C140.98 76.6645 141.4 76.9225 141.712 77.2705C142.024 77.6065 142.18 78.0925 142.18 78.7285C142.192 79.2805 142.048 79.7785 141.748 80.2225C141.448 80.6665 141.016 81.0145 140.452 81.2665C139.888 81.5185 139.222 81.6445 138.454 81.6445ZM148.559 81.6445C147.659 81.6445 146.861 81.4525 146.165 81.0685C145.469 80.6845 144.923 80.1445 144.527 79.4485C144.131 78.7525 143.933 77.9485 143.933 77.0365C143.933 76.1125 144.125 75.2905 144.509 74.5705C144.905 73.8505 145.445 73.2925 146.129 72.8965C146.825 72.4885 147.641 72.2845 148.577 72.2845C149.453 72.2845 150.227 72.4765 150.899 72.8605C151.571 73.2445 152.093 73.7725 152.465 74.4445C152.849 75.1045 153.041 75.8425 153.041 76.6585C153.041 76.7905 153.035 76.9285 153.023 77.0725C153.023 77.2165 153.017 77.3665 153.005 77.5225H146.219C146.267 78.2185 146.507 78.7645 146.939 79.1605C147.383 79.5565 147.917 79.7545 148.541 79.7545C149.009 79.7545 149.399 79.6525 149.711 79.4485C150.035 79.2325 150.275 78.9565 150.431 78.6205H152.771C152.603 79.1845 152.321 79.7005 151.925 80.1685C151.541 80.6245 151.061 80.9845 150.485 81.2485C149.921 81.5125 149.279 81.6445 148.559 81.6445ZM148.577 74.1565C148.013 74.1565 147.515 74.3185 147.083 74.6425C146.651 74.9545 146.375 75.4345 146.255 76.0825H150.701C150.665 75.4945 150.449 75.0265 150.053 74.6785C149.657 74.3305 149.165 74.1565 148.577 74.1565Z" fill="#111827"/>
<path d="M203.224 81.4285V68.8285H207.886C208.894 68.8285 209.728 68.9965 210.388 69.3325C211.048 69.6685 211.54 70.1305 211.864 70.7185C212.188 71.3065 212.35 71.9665 212.35 72.6985C212.35 73.3945 212.194 74.0365 211.882 74.6245C211.57 75.2005 211.084 75.6685 210.424 76.0285C209.764 76.3765 208.918 76.5505 207.886 76.5505H205.528V81.4285H203.224ZM205.528 74.6785H207.742C208.546 74.6785 209.122 74.5045 209.47 74.1565C209.83 73.7965 210.01 73.3105 210.01 72.6985C210.01 72.0745 209.83 71.5885 209.47 71.2405C209.122 70.8805 208.546 70.7005 207.742 70.7005H205.528V74.6785ZM214.104 81.4285V72.5005H216.156L216.372 74.1745C216.696 73.5985 217.134 73.1425 217.686 72.8065C218.25 72.4585 218.91 72.2845 219.666 72.2845V74.7145H219.018C218.514 74.7145 218.064 74.7925 217.668 74.9485C217.272 75.1045 216.96 75.3745 216.732 75.7585C216.516 76.1425 216.408 76.6765 216.408 77.3605V81.4285H214.104ZM222.482 71.1145C222.062 71.1145 221.714 70.9885 221.438 70.7365C221.174 70.4845 221.042 70.1665 221.042 69.7825C221.042 69.3985 221.174 69.0865 221.438 68.8465C221.714 68.5945 222.062 68.4685 222.482 68.4685C222.902 68.4685 223.244 68.5945 223.508 68.8465C223.784 69.0865 223.922 69.3985 223.922 69.7825C223.922 70.1665 223.784 70.4845 223.508 70.7365C223.244 70.9885 222.902 71.1145 222.482 71.1145ZM221.33 81.4285V72.5005H223.634V81.4285H221.33ZM228.451 81.4285L225.175 72.5005H227.587L229.855 79.2505L232.123 72.5005H234.535L231.241 81.4285H228.451ZM238.521 81.6445C237.753 81.6445 237.123 81.5245 236.631 81.2845C236.139 81.0325 235.773 80.7025 235.533 80.2945C235.293 79.8865 235.173 79.4365 235.173 78.9445C235.173 78.1165 235.497 77.4445 236.145 76.9285C236.793 76.4125 237.765 76.1545 239.061 76.1545H241.329V75.9385C241.329 75.3265 241.155 74.8765 240.807 74.5885C240.459 74.3005 240.027 74.1565 239.511 74.1565C239.043 74.1565 238.635 74.2705 238.287 74.4985C237.939 74.7145 237.723 75.0385 237.639 75.4705H235.389C235.449 74.8225 235.665 74.2585 236.037 73.7785C236.421 73.2985 236.913 72.9325 237.513 72.6805C238.113 72.4165 238.785 72.2845 239.529 72.2845C240.801 72.2845 241.803 72.6025 242.535 73.2385C243.267 73.8745 243.633 74.7745 243.633 75.9385V81.4285H241.671L241.455 79.9885C241.191 80.4685 240.819 80.8645 240.339 81.1765C239.871 81.4885 239.265 81.6445 238.521 81.6445ZM239.043 79.8445C239.703 79.8445 240.213 79.6285 240.573 79.1965C240.945 78.7645 241.179 78.2305 241.275 77.5945H239.313C238.701 77.5945 238.263 77.7085 237.999 77.9365C237.735 78.1525 237.603 78.4225 237.603 78.7465C237.603 79.0945 237.735 79.3645 237.999 79.5565C238.263 79.7485 238.611 79.8445 239.043 79.8445ZM250.206 81.6445C249.294 81.6445 248.49 81.4465 247.794 81.0505C247.098 80.6545 246.546 80.1025 246.138 79.3945C245.742 78.6865 245.544 77.8765 245.544 76.9645C245.544 76.0525 245.742 75.2425 246.138 74.5345C246.546 73.8265 247.098 73.2745 247.794 72.8785C248.49 72.4825 249.294 72.2845 250.206 72.2845C251.346 72.2845 252.306 72.5845 253.086 73.1845C253.866 73.7725 254.364 74.5885 254.58 75.6325H252.15C252.03 75.2005 251.79 74.8645 251.43 74.6245C251.082 74.3725 250.668 74.2465 250.188 74.2465C249.552 74.2465 249.012 74.4865 248.568 74.9665C248.124 75.4465 247.902 76.1125 247.902 76.9645C247.902 77.8165 248.124 78.4825 248.568 78.9625C249.012 79.4425 249.552 79.6825 250.188 79.6825C250.668 79.6825 251.082 79.5625 251.43 79.3225C251.79 79.0825 252.03 78.7405 252.15 78.2965H254.58C254.364 79.3045 253.866 80.1145 253.086 80.7265C252.306 81.3385 251.346 81.6445 250.206 81.6445ZM257.741 85.3885L259.811 80.8345H259.271L255.797 72.5005H258.299L260.801 78.7825L263.411 72.5005H265.859L260.189 85.3885H257.741ZM275.74 81.6265C274.816 81.6265 274.012 81.4705 273.328 81.1585C272.644 80.8345 272.11 80.3845 271.726 79.8085C271.354 79.2325 271.168 78.5605 271.168 77.7925C271.168 76.9765 271.396 76.2385 271.852 75.5785C272.308 74.9185 272.986 74.3905 273.886 73.9945C273.526 73.5745 273.268 73.1785 273.112 72.8065C272.956 72.4345 272.878 72.0385 272.878 71.6185C272.878 71.0425 273.022 70.5325 273.31 70.0885C273.598 69.6325 274.006 69.2725 274.534 69.0085C275.074 68.7445 275.716 68.6125 276.46 68.6125C277.216 68.6125 277.858 68.7505 278.386 69.0265C278.914 69.3025 279.31 69.6745 279.574 70.1425C279.85 70.6105 279.976 71.1325 279.952 71.7085H277.756C277.756 71.2645 277.624 70.9345 277.36 70.7185C277.108 70.4905 276.802 70.3765 276.442 70.3765C276.034 70.3765 275.704 70.4905 275.452 70.7185C275.212 70.9465 275.092 71.2405 275.092 71.6005C275.092 71.9005 275.188 72.2065 275.38 72.5185C275.572 72.8305 275.854 73.1905 276.226 73.5985L279.754 77.0905C280.006 76.6825 280.27 76.2085 280.546 75.6685L280.942 74.8765H283.3L282.67 76.1005C282.19 77.0725 281.71 77.8945 281.23 78.5665L284.128 81.4285H281.374L279.97 80.0245C279.358 80.5885 278.704 80.9965 278.008 81.2485C277.324 81.5005 276.568 81.6265 275.74 81.6265ZM273.4 77.6485C273.4 78.2365 273.616 78.7345 274.048 79.1425C274.492 79.5385 275.08 79.7365 275.812 79.7365C276.856 79.7365 277.762 79.3645 278.53 78.6205L275.2 75.3265C274.588 75.5905 274.132 75.9205 273.832 76.3165C273.544 76.7125 273.4 77.1565 273.4 77.6485ZM289.902 81.4285V68.8285H294.564C295.572 68.8285 296.406 68.9965 297.066 69.3325C297.726 69.6685 298.218 70.1305 298.542 70.7185C298.866 71.3065 299.028 71.9665 299.028 72.6985C299.028 73.3945 298.872 74.0365 298.56 74.6245C298.248 75.2005 297.762 75.6685 297.102 76.0285C296.442 76.3765 295.596 76.5505 294.564 76.5505H292.206V81.4285H289.902ZM292.206 74.6785H294.42C295.224 74.6785 295.8 74.5045 296.148 74.1565C296.508 73.7965 296.688 73.3105 296.688 72.6985C296.688 72.0745 296.508 71.5885 296.148 71.2405C295.8 70.8805 295.224 70.7005 294.42 70.7005H292.206V74.6785ZM304.608 81.6445C303.744 81.6445 302.964 81.4465 302.268 81.0505C301.584 80.6545 301.038 80.1085 300.63 79.4125C300.234 78.7045 300.036 77.8885 300.036 76.9645C300.036 76.0405 300.24 75.2305 300.648 74.5345C301.056 73.8265 301.602 73.2745 302.286 72.8785C302.982 72.4825 303.762 72.2845 304.626 72.2845C305.478 72.2845 306.246 72.4825 306.93 72.8785C307.626 73.2745 308.172 73.8265 308.568 74.5345C308.976 75.2305 309.18 76.0405 309.18 76.9645C309.18 77.8885 308.976 78.7045 308.568 79.4125C308.172 80.1085 307.626 80.6545 306.93 81.0505C306.234 81.4465 305.46 81.6445 304.608 81.6445ZM304.608 79.6465C305.208 79.6465 305.73 79.4245 306.174 78.9805C306.618 78.5245 306.84 77.8525 306.84 76.9645C306.84 76.0765 306.618 75.4105 306.174 74.9665C305.73 74.5105 305.214 74.2825 304.626 74.2825C304.014 74.2825 303.486 74.5105 303.042 74.9665C302.61 75.4105 302.394 76.0765 302.394 76.9645C302.394 77.8525 302.61 78.5245 303.042 78.9805C303.486 79.4245 304.008 79.6465 304.608 79.6465ZM311.24 81.4285V68.4685H313.544V81.4285H311.24ZM317.141 71.1145C316.721 71.1145 316.373 70.9885 316.097 70.7365C315.833 70.4845 315.701 70.1665 315.701 69.7825C315.701 69.3985 315.833 69.0865 316.097 68.8465C316.373 68.5945 316.721 68.4685 317.141 68.4685C317.561 68.4685 317.903 68.5945 318.167 68.8465C318.443 69.0865 318.581 69.3985 318.581 69.7825C318.581 70.1665 318.443 70.4845 318.167 70.7365C317.903 70.9885 317.561 71.1145 317.141 71.1145ZM315.989 81.4285V72.5005H318.293V81.4285H315.989ZM325.071 81.6445C324.159 81.6445 323.355 81.4465 322.659 81.0505C321.963 80.6545 321.411 80.1025 321.003 79.3945C320.607 78.6865 320.409 77.8765 320.409 76.9645C320.409 76.0525 320.607 75.2425 321.003 74.5345C321.411 73.8265 321.963 73.2745 322.659 72.8785C323.355 72.4825 324.159 72.2845 325.071 72.2845C326.211 72.2845 327.171 72.5845 327.951 73.1845C328.731 73.7725 329.229 74.5885 329.445 75.6325H327.015C326.895 75.2005 326.655 74.8645 326.295 74.6245C325.947 74.3725 325.533 74.2465 325.053 74.2465C324.417 74.2465 323.877 74.4865 323.433 74.9665C322.989 75.4465 322.767 76.1125 322.767 76.9645C322.767 77.8165 322.989 78.4825 323.433 78.9625C323.877 79.4425 324.417 79.6825 325.053 79.6825C325.533 79.6825 325.947 79.5625 326.295 79.3225C326.655 79.0825 326.895 78.7405 327.015 78.2965H329.445C329.229 79.3045 328.731 80.1145 327.951 80.7265C327.171 81.3385 326.211 81.6445 325.071 81.6445ZM332.606 85.3885L334.676 80.8345H334.136L330.662 72.5005H333.164L335.666 78.7825L338.276 72.5005H340.724L335.054 85.3885H332.606Z" fill="#111827"/>
<path d="M391.224 81.4285V68.8285H395.886C396.894 68.8285 397.728 68.9965 398.388 69.3325C399.048 69.6685 399.54 70.1305 399.864 70.7185C400.188 71.3065 400.35 71.9665 400.35 72.6985C400.35 73.3945 400.194 74.0365 399.882 74.6245C399.57 75.2005 399.084 75.6685 398.424 76.0285C397.764 76.3765 396.918 76.5505 395.886 76.5505H393.528V81.4285H391.224ZM393.528 74.6785H395.742C396.546 74.6785 397.122 74.5045 397.47 74.1565C397.83 73.7965 398.01 73.3105 398.01 72.6985C398.01 72.0745 397.83 71.5885 397.47 71.2405C397.122 70.8805 396.546 70.7005 395.742 70.7005H393.528V74.6785ZM402.104 81.4285V72.5005H404.156L404.372 74.1745C404.696 73.5985 405.134 73.1425 405.686 72.8065C406.25 72.4585 406.91 72.2845 407.666 72.2845V74.7145H407.018C406.514 74.7145 406.064 74.7925 405.668 74.9485C405.272 75.1045 404.96 75.3745 404.732 75.7585C404.516 76.1425 404.408 76.6765 404.408 77.3605V81.4285H402.104ZM413.42 81.6445C412.52 81.6445 411.722 81.4525 411.026 81.0685C410.33 80.6845 409.784 80.1445 409.388 79.4485C408.992 78.7525 408.794 77.9485 408.794 77.0365C408.794 76.1125 408.986 75.2905 409.37 74.5705C409.766 73.8505 410.306 73.2925 410.99 72.8965C411.686 72.4885 412.502 72.2845 413.438 72.2845C414.314 72.2845 415.088 72.4765 415.76 72.8605C416.432 73.2445 416.954 73.7725 417.326 74.4445C417.71 75.1045 417.902 75.8425 417.902 76.6585C417.902 76.7905 417.896 76.9285 417.884 77.0725C417.884 77.2165 417.878 77.3665 417.866 77.5225H411.08C411.128 78.2185 411.368 78.7645 411.8 79.1605C412.244 79.5565 412.778 79.7545 413.402 79.7545C413.87 79.7545 414.26 79.6525 414.572 79.4485C414.896 79.2325 415.136 78.9565 415.292 78.6205H417.632C417.464 79.1845 417.182 79.7005 416.786 80.1685C416.402 80.6245 415.922 80.9845 415.346 81.2485C414.782 81.5125 414.14 81.6445 413.42 81.6445ZM413.438 74.1565C412.874 74.1565 412.376 74.3185 411.944 74.6425C411.512 74.9545 411.236 75.4345 411.116 76.0825H415.562C415.526 75.4945 415.31 75.0265 414.914 74.6785C414.518 74.3305 414.026 74.1565 413.438 74.1565ZM423.53 81.6445C422.738 81.6445 422.042 81.5185 421.442 81.2665C420.842 81.0025 420.362 80.6425 420.002 80.1865C419.642 79.7305 419.426 79.2025 419.354 78.6025H421.676C421.748 78.9505 421.94 79.2505 422.252 79.5025C422.576 79.7425 422.99 79.8625 423.494 79.8625C423.998 79.8625 424.364 79.7605 424.592 79.5565C424.832 79.3525 424.952 79.1185 424.952 78.8545C424.952 78.4705 424.784 78.2125 424.448 78.0805C424.112 77.9365 423.644 77.7985 423.044 77.6665C422.66 77.5825 422.27 77.4805 421.874 77.3605C421.478 77.2405 421.112 77.0905 420.776 76.9105C420.452 76.7185 420.188 76.4785 419.984 76.1905C419.78 75.8905 419.678 75.5245 419.678 75.0925C419.678 74.3005 419.99 73.6345 420.614 73.0945C421.25 72.5545 422.138 72.2845 423.278 72.2845C424.334 72.2845 425.174 72.5305 425.798 73.0225C426.434 73.5145 426.812 74.1925 426.932 75.0565H424.754C424.622 74.3965 424.124 74.0665 423.26 74.0665C422.828 74.0665 422.492 74.1505 422.252 74.3185C422.024 74.4865 421.91 74.6965 421.91 74.9485C421.91 75.2125 422.084 75.4225 422.432 75.5785C422.78 75.7345 423.242 75.8785 423.818 76.0105C424.442 76.1545 425.012 76.3165 425.528 76.4965C426.056 76.6645 426.476 76.9225 426.788 77.2705C427.1 77.6065 427.256 78.0925 427.256 78.7285C427.268 79.2805 427.124 79.7785 426.824 80.2225C426.524 80.6665 426.092 81.0145 425.528 81.2665C424.964 81.5185 424.298 81.6445 423.53 81.6445ZM432.987 81.6445C432.195 81.6445 431.499 81.5185 430.899 81.2665C430.299 81.0025 429.819 80.6425 429.459 80.1865C429.099 79.7305 428.883 79.2025 428.811 78.6025H431.133C431.205 78.9505 431.397 79.2505 431.709 79.5025C432.033 79.7425 432.447 79.8625 432.951 79.8625C433.455 79.8625 433.821 79.7605 434.049 79.5565C434.289 79.3525 434.409 79.1185 434.409 78.8545C434.409 78.4705 434.241 78.2125 433.905 78.0805C433.569 77.9365 433.101 77.7985 432.501 77.6665C432.117 77.5825 431.727 77.4805 431.331 77.3605C430.935 77.2405 430.569 77.0905 430.233 76.9105C429.909 76.7185 429.645 76.4785 429.441 76.1905C429.237 75.8905 429.135 75.5245 429.135 75.0925C429.135 74.3005 429.447 73.6345 430.071 73.0945C430.707 72.5545 431.595 72.2845 432.735 72.2845C433.791 72.2845 434.631 72.5305 435.255 73.0225C435.891 73.5145 436.269 74.1925 436.389 75.0565H434.211C434.079 74.3965 433.581 74.0665 432.717 74.0665C432.285 74.0665 431.949 74.1505 431.709 74.3185C431.481 74.4865 431.367 74.6965 431.367 74.9485C431.367 75.2125 431.541 75.4225 431.889 75.5785C432.237 75.7345 432.699 75.8785 433.275 76.0105C433.899 76.1545 434.469 76.3165 434.985 76.4965C435.513 76.6645 435.933 76.9225 436.245 77.2705C436.557 77.6065 436.713 78.0925 436.713 78.7285C436.725 79.2805 436.581 79.7785 436.281 80.2225C435.981 80.6665 435.549 81.0145 434.985 81.2665C434.421 81.5185 433.755 81.6445 432.987 81.6445ZM443.097 81.4285V68.8285H447.723C448.731 68.8285 449.559 69.0025 450.207 69.3505C450.867 69.6865 451.359 70.1485 451.683 70.7365C452.007 71.3125 452.169 71.9545 452.169 72.6625C452.169 73.4305 451.965 74.1325 451.557 74.7685C451.161 75.4045 450.537 75.8665 449.685 76.1545L452.295 81.4285H449.649L447.309 76.4605H445.401V81.4285H443.097ZM445.401 74.7685H447.579C448.347 74.7685 448.911 74.5825 449.271 74.2105C449.631 73.8385 449.811 73.3465 449.811 72.7345C449.811 72.1345 449.631 71.6545 449.271 71.2945C448.923 70.9345 448.353 70.7545 447.561 70.7545H445.401V74.7685ZM457.997 81.6445C457.133 81.6445 456.353 81.4465 455.657 81.0505C454.973 80.6545 454.427 80.1085 454.019 79.4125C453.623 78.7045 453.425 77.8885 453.425 76.9645C453.425 76.0405 453.629 75.2305 454.037 74.5345C454.445 73.8265 454.991 73.2745 455.675 72.8785C456.371 72.4825 457.151 72.2845 458.015 72.2845C458.867 72.2845 459.635 72.4825 460.319 72.8785C461.015 73.2745 461.561 73.8265 461.957 74.5345C462.365 75.2305 462.569 76.0405 462.569 76.9645C462.569 77.8885 462.365 78.7045 461.957 79.4125C461.561 80.1085 461.015 80.6545 460.319 81.0505C459.623 81.4465 458.849 81.6445 457.997 81.6445ZM457.997 79.6465C458.597 79.6465 459.119 79.4245 459.563 78.9805C460.007 78.5245 460.229 77.8525 460.229 76.9645C460.229 76.0765 460.007 75.4105 459.563 74.9665C459.119 74.5105 458.603 74.2825 458.015 74.2825C457.403 74.2825 456.875 74.5105 456.431 74.9665C455.999 75.4105 455.783 76.0765 455.783 76.9645C455.783 77.8525 455.999 78.5245 456.431 78.9805C456.875 79.4245 457.397 79.6465 457.997 79.6465ZM468.913 81.6445C468.049 81.6445 467.269 81.4465 466.573 81.0505C465.889 80.6545 465.343 80.1085 464.935 79.4125C464.539 78.7045 464.341 77.8885 464.341 76.9645C464.341 76.0405 464.545 75.2305 464.953 74.5345C465.361 73.8265 465.907 73.2745 466.591 72.8785C467.287 72.4825 468.067 72.2845 468.931 72.2845C469.783 72.2845 470.551 72.4825 471.235 72.8785C471.931 73.2745 472.477 73.8265 472.873 74.5345C473.281 75.2305 473.485 76.0405 473.485 76.9645C473.485 77.8885 473.281 78.7045 472.873 79.4125C472.477 80.1085 471.931 80.6545 471.235 81.0505C470.539 81.4465 469.765 81.6445 468.913 81.6445ZM468.913 79.6465C469.513 79.6465 470.035 79.4245 470.479 78.9805C470.923 78.5245 471.145 77.8525 471.145 76.9645C471.145 76.0765 470.923 75.4105 470.479 74.9665C470.035 74.5105 469.519 74.2825 468.931 74.2825C468.319 74.2825 467.791 74.5105 467.347 74.9665C466.915 75.4105 466.699 76.0765 466.699 76.9645C466.699 77.8525 466.915 78.5245 467.347 78.9805C467.791 79.4245 468.313 79.6465 468.913 79.6465ZM475.545 81.4285V72.5005H477.579L477.777 73.7065C478.065 73.2745 478.443 72.9325 478.911 72.6805C479.391 72.4165 479.943 72.2845 480.567 72.2845C481.947 72.2845 482.925 72.8185 483.501 73.8865C483.825 73.3945 484.257 73.0045 484.797 72.7165C485.349 72.4285 485.949 72.2845 486.597 72.2845C487.761 72.2845 488.655 72.6325 489.279 73.3285C489.903 74.0245 490.215 75.0445 490.215 76.3885V81.4285H487.911V76.6045C487.911 75.8365 487.761 75.2485 487.461 74.8405C487.173 74.4325 486.723 74.2285 486.111 74.2285C485.487 74.2285 484.983 74.4565 484.599 74.9125C484.227 75.3685 484.041 76.0045 484.041 76.8205V81.4285H481.737V76.6045C481.737 75.8365 481.587 75.2485 481.287 74.8405C480.987 74.4325 480.525 74.2285 479.901 74.2285C479.289 74.2285 478.791 74.4565 478.407 74.9125C478.035 75.3685 477.849 76.0045 477.849 76.8205V81.4285H475.545Z" fill="#111827"/>
<path d="M70.074 140.536C68.838 140.536 67.746 140.26 66.798 139.708C65.862 139.156 65.124 138.4 64.584 137.44C64.056 136.468 63.792 135.352 63.792 134.092C63.792 132.844 64.056 131.74 64.584 130.78C65.124 129.808 65.862 129.052 66.798 128.512C67.746 127.96 68.838 127.684 70.074 127.684C71.322 127.684 72.414 127.96 73.35 128.512C74.298 129.052 75.036 129.808 75.564 130.78C76.092 131.74 76.356 132.844 76.356 134.092C76.356 135.352 76.092 136.468 75.564 137.44C75.036 138.4 74.298 139.156 73.35 139.708C72.414 140.26 71.322 140.536 70.074 140.536ZM70.074 139.69C71.19 139.69 72.15 139.456 72.954 138.988C73.758 138.52 74.376 137.866 74.808 137.026C75.252 136.186 75.474 135.208 75.474 134.092C75.474 132.976 75.252 131.998 74.808 131.158C74.376 130.318 73.758 129.67 72.954 129.214C72.15 128.746 71.19 128.512 70.074 128.512C68.97 128.512 68.016 128.746 67.212 129.214C66.408 129.67 65.784 130.318 65.34 131.158C64.908 131.998 64.692 132.976 64.692 134.092C64.692 135.208 64.908 136.186 65.34 137.026C65.784 137.866 66.408 138.52 67.212 138.988C68.016 139.456 68.97 139.69 70.074 139.69ZM70.092 138.214C69.348 138.214 68.676 138.052 68.076 137.728C67.476 137.392 67.002 136.918 66.654 136.306C66.318 135.682 66.15 134.944 66.15 134.092C66.15 133.24 66.318 132.508 66.654 131.896C67.002 131.284 67.476 130.81 68.076 130.474C68.676 130.138 69.348 129.97 70.092 129.97C71.016 129.97 71.814 130.222 72.486 130.726C73.17 131.23 73.614 131.932 73.818 132.832H71.802C71.67 132.436 71.448 132.13 71.136 131.914C70.836 131.686 70.47 131.572 70.038 131.572C69.474 131.572 69 131.782 68.616 132.202C68.244 132.622 68.058 133.252 68.058 134.092C68.058 134.932 68.244 135.568 68.616 136C69 136.42 69.474 136.63 70.038 136.63C70.494 136.63 70.866 136.516 71.154 136.288C71.442 136.06 71.658 135.754 71.802 135.37H73.818C73.614 136.234 73.17 136.924 72.486 137.44C71.814 137.956 71.016 138.214 70.092 138.214ZM82.3575 140.428V138.754C83.1255 138.118 83.8695 137.488 84.5895 136.864C85.3215 136.24 85.9695 135.622 86.5335 135.01C87.1095 134.398 87.5655 133.804 87.9015 133.228C88.2495 132.64 88.4235 132.07 88.4235 131.518C88.4235 131.002 88.2795 130.546 87.9915 130.15C87.7155 129.754 87.2535 129.556 86.6055 129.556C85.9455 129.556 85.4475 129.772 85.1115 130.204C84.7755 130.636 84.6075 131.158 84.6075 131.77H82.3755C82.3995 130.846 82.6035 130.078 82.9875 129.466C83.3715 128.842 83.8815 128.38 84.5175 128.08C85.1535 127.768 85.8675 127.612 86.6595 127.612C87.9435 127.612 88.9395 127.966 89.6475 128.674C90.3675 129.37 90.7275 130.276 90.7275 131.392C90.7275 132.088 90.5655 132.766 90.2415 133.426C89.9295 134.086 89.5155 134.722 88.9995 135.334C88.4835 135.946 87.9255 136.522 87.3255 137.062C86.7255 137.59 86.1435 138.082 85.5795 138.538H91.0335V140.428H82.3575ZM98.0248 140.644C96.8608 140.644 95.8648 140.374 95.0368 139.834C94.2088 139.282 93.5668 138.52 93.1108 137.548C92.6668 136.564 92.4448 135.424 92.4448 134.128C92.4448 132.844 92.6668 131.71 93.1108 130.726C93.5668 129.742 94.2088 128.98 95.0368 128.44C95.8648 127.888 96.8608 127.612 98.0248 127.612C99.1888 127.612 100.185 127.888 101.013 128.44C101.841 128.98 102.477 129.742 102.921 130.726C103.377 131.71 103.605 132.844 103.605 134.128C103.605 135.424 103.377 136.564 102.921 137.548C102.477 138.52 101.841 139.282 101.013 139.834C100.185 140.374 99.1888 140.644 98.0248 140.644ZM98.0248 138.574C98.9728 138.574 99.7468 138.178 100.347 137.386C100.947 136.594 101.247 135.508 101.247 134.128C101.247 132.748 100.947 131.662 100.347 130.87C99.7468 130.078 98.9728 129.682 98.0248 129.682C97.0648 129.682 96.2848 130.078 95.6848 130.87C95.0968 131.662 94.8028 132.748 94.8028 134.128C94.8028 135.508 95.0968 136.594 95.6848 137.386C96.2848 138.178 97.0648 138.574 98.0248 138.574ZM105.244 140.428V138.754C106.012 138.118 106.756 137.488 107.476 136.864C108.208 136.24 108.856 135.622 109.42 135.01C109.996 134.398 110.452 133.804 110.788 133.228C111.136 132.64 111.31 132.07 111.31 131.518C111.31 131.002 111.166 130.546 110.878 130.15C110.602 129.754 110.14 129.556 109.492 129.556C108.832 129.556 108.334 129.772 107.998 130.204C107.662 130.636 107.494 131.158 107.494 131.77H105.262C105.286 130.846 105.49 130.078 105.874 129.466C106.258 128.842 106.768 128.38 107.404 128.08C108.04 127.768 108.754 127.612 109.546 127.612C110.83 127.612 111.826 127.966 112.534 128.674C113.254 129.37 113.614 130.276 113.614 131.392C113.614 132.088 113.452 132.766 113.128 133.426C112.816 134.086 112.402 134.722 111.886 135.334C111.37 135.946 110.812 136.522 110.212 137.062C109.612 137.59 109.03 138.082 108.466 138.538H113.92V140.428H105.244ZM117.201 140.428V130.456L115.131 130.942V129.178L118.173 127.828H119.595V140.428H117.201ZM126.328 140.428V127.828H129.064L133.078 135.82L137.038 127.828H139.774V140.428H137.47V131.734L133.96 138.628H132.142L128.632 131.734V140.428H126.328ZM146.448 140.644C145.584 140.644 144.804 140.446 144.108 140.05C143.424 139.654 142.878 139.108 142.47 138.412C142.074 137.704 141.876 136.888 141.876 135.964C141.876 135.04 142.08 134.23 142.488 133.534C142.896 132.826 143.442 132.274 144.126 131.878C144.822 131.482 145.602 131.284 146.466 131.284C147.318 131.284 148.086 131.482 148.77 131.878C149.466 132.274 150.012 132.826 150.408 133.534C150.816 134.23 151.02 135.04 151.02 135.964C151.02 136.888 150.816 137.704 150.408 138.412C150.012 139.108 149.466 139.654 148.77 140.05C148.074 140.446 147.3 140.644 146.448 140.644ZM146.448 138.646C147.048 138.646 147.57 138.424 148.014 137.98C148.458 137.524 148.68 136.852 148.68 135.964C148.68 135.076 148.458 134.41 148.014 133.966C147.57 133.51 147.054 133.282 146.466 133.282C145.854 133.282 145.326 133.51 144.882 133.966C144.45 134.41 144.234 135.076 144.234 135.964C144.234 136.852 144.45 137.524 144.882 137.98C145.326 138.424 145.848 138.646 146.448 138.646ZM155.053 140.428L151.777 131.5H154.189L156.457 138.25L158.725 131.5H161.137L157.843 140.428H155.053ZM163.832 130.114C163.412 130.114 163.064 129.988 162.788 129.736C162.524 129.484 162.392 129.166 162.392 128.782C162.392 128.398 162.524 128.086 162.788 127.846C163.064 127.594 163.412 127.468 163.832 127.468C164.252 127.468 164.594 127.594 164.858 127.846C165.134 128.086 165.272 128.398 165.272 128.782C165.272 129.166 165.134 129.484 164.858 129.736C164.594 129.988 164.252 130.114 163.832 130.114ZM162.68 140.428V131.5H164.984V140.428H162.68ZM171.727 140.644C170.827 140.644 170.029 140.452 169.333 140.068C168.637 139.684 168.091 139.144 167.695 138.448C167.299 137.752 167.101 136.948 167.101 136.036C167.101 135.112 167.293 134.29 167.677 133.57C168.073 132.85 168.613 132.292 169.297 131.896C169.993 131.488 170.809 131.284 171.745 131.284C172.621 131.284 173.395 131.476 174.067 131.86C174.739 132.244 175.261 132.772 175.633 133.444C176.017 134.104 176.209 134.842 176.209 135.658C176.209 135.79 176.203 135.928 176.191 136.072C176.191 136.216 176.185 136.366 176.173 136.522H169.387C169.435 137.218 169.675 137.764 170.107 138.16C170.551 138.556 171.085 138.754 171.709 138.754C172.177 138.754 172.567 138.652 172.879 138.448C173.203 138.232 173.443 137.956 173.599 137.62H175.939C175.771 138.184 175.489 138.7 175.093 139.168C174.709 139.624 174.229 139.984 173.653 140.248C173.089 140.512 172.447 140.644 171.727 140.644ZM171.745 133.156C171.181 133.156 170.683 133.318 170.251 133.642C169.819 133.954 169.543 134.434 169.423 135.082H173.869C173.833 134.494 173.617 134.026 173.221 133.678C172.825 133.33 172.333 133.156 171.745 133.156ZM178.201 140.428V127.828H183.259C184.567 127.828 185.563 128.134 186.247 128.746C186.943 129.346 187.291 130.12 187.291 131.068C187.291 131.86 187.075 132.496 186.643 132.976C186.223 133.444 185.707 133.762 185.095 133.93C185.815 134.074 186.409 134.434 186.877 135.01C187.345 135.574 187.579 136.234 187.579 136.99C187.579 137.986 187.219 138.808 186.499 139.456C185.779 140.104 184.759 140.428 183.439 140.428H178.201ZM180.505 133.12H182.917C183.565 133.12 184.063 132.97 184.411 132.67C184.759 132.37 184.933 131.944 184.933 131.392C184.933 130.864 184.759 130.45 184.411 130.15C184.075 129.838 183.565 129.682 182.881 129.682H180.505V133.12ZM180.505 138.556H183.079C183.763 138.556 184.291 138.4 184.663 138.088C185.047 137.764 185.239 137.314 185.239 136.738C185.239 136.15 185.041 135.688 184.645 135.352C184.249 135.016 183.715 134.848 183.043 134.848H180.505V138.556ZM193.786 140.644C192.922 140.644 192.142 140.446 191.446 140.05C190.762 139.654 190.216 139.108 189.808 138.412C189.412 137.704 189.214 136.888 189.214 135.964C189.214 135.04 189.418 134.23 189.826 133.534C190.234 132.826 190.78 132.274 191.464 131.878C192.16 131.482 192.94 131.284 193.804 131.284C194.656 131.284 195.424 131.482 196.108 131.878C196.804 132.274 197.35 132.826 197.746 133.534C198.154 134.23 198.358 135.04 198.358 135.964C198.358 136.888 198.154 137.704 197.746 138.412C197.35 139.108 196.804 139.654 196.108 140.05C195.412 140.446 194.638 140.644 193.786 140.644ZM193.786 138.646C194.386 138.646 194.908 138.424 195.352 137.98C195.796 137.524 196.018 136.852 196.018 135.964C196.018 135.076 195.796 134.41 195.352 133.966C194.908 133.51 194.392 133.282 193.804 133.282C193.192 133.282 192.664 133.51 192.22 133.966C191.788 134.41 191.572 135.076 191.572 135.964C191.572 136.852 191.788 137.524 192.22 137.98C192.664 138.424 193.186 138.646 193.786 138.646ZM199.097 140.428L202.337 135.964L199.097 131.5H201.563L203.831 134.668L206.081 131.5H208.565L205.307 135.964L208.565 140.428H206.081L203.831 137.26L201.563 140.428H199.097ZM219.614 140.644C218.942 140.644 218.354 140.518 217.85 140.266C217.346 140.014 216.938 139.66 216.626 139.204L216.374 140.428H214.322V127.468H216.626V132.778C216.914 132.382 217.292 132.034 217.76 131.734C218.24 131.434 218.858 131.284 219.614 131.284C220.454 131.284 221.204 131.488 221.864 131.896C222.524 132.304 223.046 132.862 223.43 133.57C223.814 134.278 224.006 135.082 224.006 135.982C224.006 136.882 223.814 137.686 223.43 138.394C223.046 139.09 222.524 139.642 221.864 140.05C221.204 140.446 220.454 140.644 219.614 140.644ZM219.128 138.628C219.86 138.628 220.466 138.382 220.946 137.89C221.426 137.398 221.666 136.762 221.666 135.982C221.666 135.202 221.426 134.56 220.946 134.056C220.466 133.552 219.86 133.3 219.128 133.3C218.384 133.3 217.772 133.552 217.292 134.056C216.824 134.548 216.59 135.184 216.59 135.964C216.59 136.744 216.824 137.386 217.292 137.89C217.772 138.382 218.384 138.628 219.128 138.628ZM226.372 144.388L228.442 139.834H227.902L224.428 131.5H226.93L229.432 137.782L232.042 131.5H234.49L228.82 144.388H226.372ZM239.529 140.428L244.137 127.828H246.729L251.337 140.428H248.889L247.881 137.512H242.967L241.941 140.428H239.529ZM243.597 135.712H247.251L245.415 130.474L243.597 135.712ZM256.588 140.644C255.748 140.644 254.998 140.44 254.338 140.032C253.678 139.624 253.156 139.066 252.772 138.358C252.388 137.65 252.196 136.846 252.196 135.946C252.196 135.046 252.388 134.248 252.772 133.552C253.156 132.844 253.678 132.292 254.338 131.896C254.998 131.488 255.748 131.284 256.588 131.284C257.26 131.284 257.848 131.41 258.352 131.662C258.856 131.914 259.264 132.268 259.576 132.724V127.468H261.88V140.428H259.828L259.576 139.15C259.288 139.546 258.904 139.894 258.424 140.194C257.956 140.494 257.344 140.644 256.588 140.644ZM257.074 138.628C257.818 138.628 258.424 138.382 258.892 137.89C259.372 137.386 259.612 136.744 259.612 135.964C259.612 135.184 259.372 134.548 258.892 134.056C258.424 133.552 257.818 133.3 257.074 133.3C256.342 133.3 255.736 133.546 255.256 134.038C254.776 134.53 254.536 135.166 254.536 135.946C254.536 136.726 254.776 137.368 255.256 137.872C255.736 138.376 256.342 138.628 257.074 138.628ZM264.227 140.428V131.5H266.279L266.495 133.174C266.819 132.598 267.257 132.142 267.809 131.806C268.373 131.458 269.033 131.284 269.789 131.284V133.714H269.141C268.637 133.714 268.187 133.792 267.791 133.948C267.395 134.104 267.083 134.374 266.855 134.758C266.639 135.142 266.531 135.676 266.531 136.36V140.428H264.227ZM272.605 130.114C272.185 130.114 271.837 129.988 271.561 129.736C271.297 129.484 271.165 129.166 271.165 128.782C271.165 128.398 271.297 128.086 271.561 127.846C271.837 127.594 272.185 127.468 272.605 127.468C273.025 127.468 273.367 127.594 273.631 127.846C273.907 128.086 274.045 128.398 274.045 128.782C274.045 129.166 273.907 129.484 273.631 129.736C273.367 129.988 273.025 130.114 272.605 130.114ZM271.453 140.428V131.5H273.757V140.428H271.453ZM279.24 140.644C278.472 140.644 277.842 140.524 277.35 140.284C276.858 140.032 276.492 139.702 276.252 139.294C276.012 138.886 275.892 138.436 275.892 137.944C275.892 137.116 276.216 136.444 276.864 135.928C277.512 135.412 278.484 135.154 279.78 135.154H282.048V134.938C282.048 134.326 281.874 133.876 281.526 133.588C281.178 133.3 280.746 133.156 280.23 133.156C279.762 133.156 279.354 133.27 279.006 133.498C278.658 133.714 278.442 134.038 278.358 134.47H276.108C276.168 133.822 276.384 133.258 276.756 132.778C277.14 132.298 277.632 131.932 278.232 131.68C278.832 131.416 279.504 131.284 280.248 131.284C281.52 131.284 282.522 131.602 283.254 132.238C283.986 132.874 284.352 133.774 284.352 134.938V140.428H282.39L282.174 138.988C281.91 139.468 281.538 139.864 281.058 140.176C280.59 140.488 279.984 140.644 279.24 140.644ZM279.762 138.844C280.422 138.844 280.932 138.628 281.292 138.196C281.664 137.764 281.898 137.23 281.994 136.594H280.032C279.42 136.594 278.982 136.708 278.718 136.936C278.454 137.152 278.322 137.422 278.322 137.746C278.322 138.094 278.454 138.364 278.718 138.556C278.982 138.748 279.33 138.844 279.762 138.844ZM286.551 140.428V131.5H288.585L288.765 133.012C289.041 132.484 289.437 132.064 289.953 131.752C290.481 131.44 291.099 131.284 291.807 131.284C292.911 131.284 293.769 131.632 294.381 132.328C294.993 133.024 295.299 134.044 295.299 135.388V140.428H292.995V135.604C292.995 134.836 292.839 134.248 292.527 133.84C292.215 133.432 291.729 133.228 291.069 133.228C290.421 133.228 289.887 133.456 289.467 133.912C289.059 134.368 288.855 135.004 288.855 135.82V140.428H286.551ZM300.58 140.644C299.812 140.644 299.182 140.524 298.69 140.284C298.198 140.032 297.832 139.702 297.592 139.294C297.352 138.886 297.232 138.436 297.232 137.944C297.232 137.116 297.556 136.444 298.204 135.928C298.852 135.412 299.824 135.154 301.12 135.154H303.388V134.938C303.388 134.326 303.214 133.876 302.866 133.588C302.518 133.3 302.086 133.156 301.57 133.156C301.102 133.156 300.694 133.27 300.346 133.498C299.998 133.714 299.782 134.038 299.698 134.47H297.448C297.508 133.822 297.724 133.258 298.096 132.778C298.48 132.298 298.972 131.932 299.572 131.68C300.172 131.416 300.844 131.284 301.588 131.284C302.86 131.284 303.862 131.602 304.594 132.238C305.326 132.874 305.692 133.774 305.692 134.938V140.428H303.73L303.514 138.988C303.25 139.468 302.878 139.864 302.398 140.176C301.93 140.488 301.324 140.644 300.58 140.644ZM301.102 138.844C301.762 138.844 302.272 138.628 302.632 138.196C303.004 137.764 303.238 137.23 303.334 136.594H301.372C300.76 136.594 300.322 136.708 300.058 136.936C299.794 137.152 299.662 137.422 299.662 137.746C299.662 138.094 299.794 138.364 300.058 138.556C300.322 138.748 300.67 138.844 301.102 138.844ZM312.234 140.428V127.828H320.46V129.682H314.538V133.138H319.92V134.938H314.538V138.574H320.46V140.428H312.234ZM322.586 140.428V127.468H324.89V135.118L328.058 131.5H330.794L327.14 135.568L331.388 140.428H328.508L324.89 135.946V140.428H322.586ZM335.596 140.644C334.828 140.644 334.198 140.524 333.706 140.284C333.214 140.032 332.848 139.702 332.608 139.294C332.368 138.886 332.248 138.436 332.248 137.944C332.248 137.116 332.572 136.444 333.22 135.928C333.868 135.412 334.84 135.154 336.136 135.154H338.404V134.938C338.404 134.326 338.23 133.876 337.882 133.588C337.534 133.3 337.102 133.156 336.586 133.156C336.118 133.156 335.71 133.27 335.362 133.498C335.014 133.714 334.798 134.038 334.714 134.47H332.464C332.524 133.822 332.74 133.258 333.112 132.778C333.496 132.298 333.988 131.932 334.588 131.68C335.188 131.416 335.86 131.284 336.604 131.284C337.876 131.284 338.878 131.602 339.61 132.238C340.342 132.874 340.708 133.774 340.708 134.938V140.428H338.746L338.53 138.988C338.266 139.468 337.894 139.864 337.414 140.176C336.946 140.488 336.34 140.644 335.596 140.644ZM336.118 138.844C336.778 138.844 337.288 138.628 337.648 138.196C338.02 137.764 338.254 137.23 338.35 136.594H336.388C335.776 136.594 335.338 136.708 335.074 136.936C334.81 137.152 334.678 137.422 334.678 137.746C334.678 138.094 334.81 138.364 335.074 138.556C335.338 138.748 335.686 138.844 336.118 138.844ZM347.249 140.428V127.828H351.911C352.919 127.828 353.753 127.996 354.413 128.332C355.073 128.668 355.565 129.13 355.889 129.718C356.213 130.306 356.375 130.966 356.375 131.698C356.375 132.394 356.219 133.036 355.907 133.624C355.595 134.2 355.109 134.668 354.449 135.028C353.789 135.376 352.943 135.55 351.911 135.55H349.553V140.428H347.249ZM349.553 133.678H351.767C352.571 133.678 353.147 133.504 353.495 133.156C353.855 132.796 354.035 132.31 354.035 131.698C354.035 131.074 353.855 130.588 353.495 130.24C353.147 129.88 352.571 129.7 351.767 129.7H349.553V133.678ZM358.129 140.428V131.5H360.181L360.397 133.174C360.721 132.598 361.159 132.142 361.711 131.806C362.275 131.458 362.935 131.284 363.691 131.284V133.714H363.043C362.539 133.714 362.089 133.792 361.693 133.948C361.297 134.104 360.985 134.374 360.757 134.758C360.541 135.142 360.433 135.676 360.433 136.36V140.428H358.129ZM368.344 140.644C367.576 140.644 366.946 140.524 366.454 140.284C365.962 140.032 365.596 139.702 365.356 139.294C365.116 138.886 364.996 138.436 364.996 137.944C364.996 137.116 365.32 136.444 365.968 135.928C366.616 135.412 367.588 135.154 368.884 135.154H371.152V134.938C371.152 134.326 370.978 133.876 370.63 133.588C370.282 133.3 369.85 133.156 369.334 133.156C368.866 133.156 368.458 133.27 368.11 133.498C367.762 133.714 367.546 134.038 367.462 134.47H365.212C365.272 133.822 365.488 133.258 365.86 132.778C366.244 132.298 366.736 131.932 367.336 131.68C367.936 131.416 368.608 131.284 369.352 131.284C370.624 131.284 371.626 131.602 372.358 132.238C373.09 132.874 373.456 133.774 373.456 134.938V140.428H371.494L371.278 138.988C371.014 139.468 370.642 139.864 370.162 140.176C369.694 140.488 369.088 140.644 368.344 140.644ZM368.866 138.844C369.526 138.844 370.036 138.628 370.396 138.196C370.768 137.764 371.002 137.23 371.098 136.594H369.136C368.524 136.594 368.086 136.708 367.822 136.936C367.558 137.152 367.426 137.422 367.426 137.746C367.426 138.094 367.558 138.364 367.822 138.556C368.086 138.748 368.434 138.844 368.866 138.844ZM376.472 144.388L378.542 139.834H378.002L374.528 131.5H377.03L379.532 137.782L382.142 131.5H384.59L378.92 144.388H376.472ZM389.444 140.644C388.328 140.644 387.464 140.296 386.852 139.6C386.252 138.904 385.952 137.884 385.952 136.54V131.5H388.238V136.324C388.238 137.092 388.394 137.68 388.706 138.088C389.018 138.496 389.51 138.7 390.182 138.7C390.818 138.7 391.34 138.472 391.748 138.016C392.168 137.56 392.378 136.924 392.378 136.108V131.5H394.682V140.428H392.648L392.468 138.916C392.192 139.444 391.79 139.864 391.262 140.176C390.746 140.488 390.14 140.644 389.444 140.644ZM401.151 140.644C400.311 140.644 399.561 140.44 398.901 140.032C398.241 139.624 397.719 139.066 397.335 138.358C396.951 137.65 396.759 136.846 396.759 135.946C396.759 135.046 396.951 134.248 397.335 133.552C397.719 132.844 398.241 132.292 398.901 131.896C399.561 131.488 400.311 131.284 401.151 131.284C401.823 131.284 402.411 131.41 402.915 131.662C403.419 131.914 403.827 132.268 404.139 132.724V127.468H406.443V140.428H404.391L404.139 139.15C403.851 139.546 403.467 139.894 402.987 140.194C402.519 140.494 401.907 140.644 401.151 140.644ZM401.637 138.628C402.381 138.628 402.987 138.382 403.455 137.89C403.935 137.386 404.175 136.744 404.175 135.964C404.175 135.184 403.935 134.548 403.455 134.056C402.987 133.552 402.381 133.3 401.637 133.3C400.905 133.3 400.299 133.546 399.819 134.038C399.339 134.53 399.099 135.166 399.099 135.946C399.099 136.726 399.339 137.368 399.819 137.872C400.299 138.376 400.905 138.628 401.637 138.628ZM408.789 140.428V127.468H411.093V132.868C411.393 132.376 411.795 131.992 412.299 131.716C412.815 131.428 413.403 131.284 414.063 131.284C415.167 131.284 416.019 131.632 416.619 132.328C417.231 133.024 417.537 134.044 417.537 135.388V140.428H415.251V135.604C415.251 134.836 415.095 134.248 414.783 133.84C414.483 133.432 414.003 133.228 413.343 133.228C412.695 133.228 412.155 133.456 411.723 133.912C411.303 134.368 411.093 135.004 411.093 135.82V140.428H408.789ZM422.818 140.644C422.05 140.644 421.42 140.524 420.928 140.284C420.436 140.032 420.07 139.702 419.83 139.294C419.59 138.886 419.47 138.436 419.47 137.944C419.47 137.116 419.794 136.444 420.442 135.928C421.09 135.412 422.062 135.154 423.358 135.154H425.626V134.938C425.626 134.326 425.452 133.876 425.104 133.588C424.756 133.3 424.324 133.156 423.808 133.156C423.34 133.156 422.932 133.27 422.584 133.498C422.236 133.714 422.02 134.038 421.936 134.47H419.686C419.746 133.822 419.962 133.258 420.334 132.778C420.718 132.298 421.21 131.932 421.81 131.68C422.41 131.416 423.082 131.284 423.826 131.284C425.098 131.284 426.1 131.602 426.832 132.238C427.564 132.874 427.93 133.774 427.93 134.938V140.428H425.968L425.752 138.988C425.488 139.468 425.116 139.864 424.636 140.176C424.168 140.488 423.562 140.644 422.818 140.644ZM423.34 138.844C424 138.844 424.51 138.628 424.87 138.196C425.242 137.764 425.476 137.23 425.572 136.594H423.61C422.998 136.594 422.56 136.708 422.296 136.936C422.032 137.152 421.9 137.422 421.9 137.746C421.9 138.094 422.032 138.364 422.296 138.556C422.56 138.748 422.908 138.844 423.34 138.844Z" fill="#6B7280"/>
<defs>
<clipPath id="clip0_1269_899">
<rect width="24" height="27.4286" fill="white" transform="translate(126)"/>
</clipPath>
<clipPath id="clip1_1269_899">
<rect width="24" height="27.4286" fill="white" transform="translate(198)"/>
</clipPath>
</defs>
</svg>
